PathFileType	4	(X/Y/Z)	C:/Users/beibeiliu/ov580/test_trc/User2\sequence.28_training_dense_right.trc
DataRate	CameraRate	NumFrames	NumMarkers	Units	OrigDataRate	OrigDataStartFrame	OrigNumFrames
120	120	18	19	mm	120	33	256
Frame#	Time	ThumbCMC			ThumbMCP			ThumbIP			ThumbTip			IndexMCP			IndexPIP			IndexTip			MiddleMCP			MiddlePIP			MiddleTip			RingMCP			RingPIP			RingTip			PinkyMCP			PinkyPIP			PinkyTip			BackHand1			BackHand2			BackHand3	
		X0	Y0	Z0	X1	Y1	Z1	X2	Y2	Z2	X3	Y3	Z3	X4	Y4	Z4	X5	Y5	Z5	X6	Y6	Z6	X7	Y7	Z7	X8	Y8	Z8	X9	Y9	Z9	X10	Y10	Z10	X11	Y11	Z11	X12	Y12	Z12	X13	Y13	Z13	X14	Y14	Z14	X15	Y15	Z15	X16	Y16	Z16	X17	Y17	Z17	X18	Y18	Z18	
32	0.266667	110.706	17.7309	67.3998	91.0594	37.4911	44.7953	71.001	52.7264	22.2332	51.9992	60.75	8.67714	75.6907	-15.4	-3.14235	59.2633	-15.0995	-30.9874	45.6635	-20.2119	-49.5399	64.4268	-39.7088	-2.91114	40.7864	-41.8189	-28.1924	16.1985	-49.4001	-47.7506	53.4336	-61.28	12.6889	32.2079	-66.0115	-3.93526	6.10354	-71.4458	-20.0337	49.019	-74.3392	40.7958	24.2224	-83.9585	33.4704	-0.0489809	-88.7945	19.0315	97.8453	-56.0782	52.896	117.647	-54.152	77.1429	115.001	-23.5215	50.4794	
33	0.275	112.514	13.7811	64.5408	100.161	35.2254	44.6981	80.6579	50.2797	19.8679	64.5103	60.7887	0.971039	76.3029	-15.731	-8.66556	62.8634	-18.7847	-29.4437	47.3477	-26.2161	-50.6702	61.6473	-43.574	-0.607575	39.034	-44.0052	-25.903	15.8183	-46.5002	-45.3716	47.2326	-62.9625	13.2005	27.2683	-67.1528	-0.690973	3.10809	-70.0285	-13.6353	42.8687	-74.3194	42.0551	19.5891	-80.097	35.4259	-5.21008	-87.6471	23.9541	97.0818	-56.9651	52.534	116.34	-53.7123	75.2759	117.936	-21.861	52.3059	
34	0.283333	115.072	8.68191	60.1499	106.805	30.2016	36.3313	90.5	42.0333	14.7676	78.2759	56.9955	-6.78721	76.6188	-23.6089	-6.93361	63.6057	-22.2553	-35.0664	49.1107	-27.7401	-53.0409	61.4933	-42.0276	-7.04102	39.4066	-44.9858	-25.748	11.5161	-47.3382	-46.8593	47.9963	-61.3381	13.2832	26.4878	-65.5779	1.35772	-0.714678	-65.2084	-18.2752	40.3319	-71.9694	42.2621	15.0314	-75.8153	35.6241	-6.78028	-78.1488	23.4959	94.0509	-59.1251	56.2844	116.1	-55.342	79.3962	116.97	-27.4763	49.5082	
35	0.291667	123.457	2.76678	59.2918	116.335	22.1803	29.4762	105.228	37.7882	4.14993	91.4451	46.312	-13.7465	82.9907	-27.0576	-14.7968	66.6323	-30.0416	-33.0994	51.4967	-29.7833	-56.37	64.1293	-50.094	-9.50146	41.1728	-50.8945	-29.7748	13.4859	-51.4904	-46.7532	48.8017	-65.2211	14.4583	25.0999	-63.5781	-4.83136	-3.49941	-61.8086	-18.0276	37.8686	-70.1574	38.2552	16.6741	-67.7365	32.2561	-9.66064	-65.2426	21.5859	96.9061	-61.6211	52.7237	117.18	-59.9731	81.3165	120.594	-36.8709	49.6904	
36	0.3	130.911	-5.53913	50.4401	126.966	13.3909	27.5563	116.162	27.6192	-6.49381	105.654	38.6985	-23.3857	88.3958	-39.5854	-15.3677	74.6179	-37.0801	-39.6688	52.5397	-36.8863	-56.9268	71.3922	-56.4966	-11.9109	46.1255	-57.6111	-31.1604	16.6032	-49.1421	-51.3537	51.7957	-65.7169	11.5829	24.4144	-60.646	-6.01607	-0.851972	-46.0065	-17.2002	39.7754	-67.0069	40.6399	10.0695	-58.2082	27.8914	-4.99126	-47.2479	18.521	95.8431	-64.9394	53.6724	115.552	-64.545	76.5494	126.422	-43.9235	50.4098	
37	0.308333	135.795	-9.05842	52.2369	133.261	11.1579	24.6205	121.729	25.8592	-9.03008	107.753	35.0018	-26.6612	92.3563	-43.9547	-14.2662	75.6018	-45.5335	-38.1608	55.5375	-37.6326	-60.658	71.7701	-62.8423	-9.59273	43.9464	-60.9959	-30.148	14.1859	-44.7127	-44.2546	51.2306	-65.0341	11.6574	23.6975	-51.9652	-5.08092	5.96847	-28.4821	-11.1377	36.8657	-61.8851	39.3639	12.2145	-44.8463	27.5018	0.526046	-21.5122	19.1623	96.196	-68.8761	55.6461	112.919	-69.3771	79.4986	125.42	-49.224	45.8843	
38	0.316667	139.229	-11.2297	51.1546	133.717	9.11041	24.4482	120.766	24.5421	-7.07137	105.674	34.928	-22.3492	91.405	-48.4982	-16.1772	75.2452	-48.159	-40.3316	50.5498	-39.6216	-57.1002	69.5192	-64.7297	-5.32223	44.3064	-57.7811	-29.0909	15.2446	-34.3384	-39.8801	47.9291	-59.9898	9.94196	24.0917	-46.8238	0.790322	12.379	-13.5376	-0.403158	39.3285	-58.3488	40.0723	16.9266	-38.5904	32.2343	13.3871	-9.48085	27.4022	95.1816	-67.8783	56.5626	114.749	-68.0473	78.9159	127.01	-53.1637	47.2869	
39	0.325	141.037	-8.82113	48.7979	128.94	9.63037	21.6208	113.637	24.5098	-3.42455	97.1104	35.2458	-17.8587	94.615	-46.6836	-11.4078	76.0749	-49.4334	-37.9311	49.4261	-38.44	-54.3884	68.721	-62.0371	-8.60877	37.4403	-52.6035	-26.8204	12.468	-24.7446	-28.5918	43.1359	-57.0891	13.1554	23.1876	-36.1733	4.03628	19.379	-1.52203	12.1972	39.4843	-53.8865	37.634	18.618	-27.643	33.3775	25.1502	2.87748	38.0325	92.0063	-69.6629	57.5579	113.248	-68.3314	84.1275	127.533	-52.5146	46.6097	
40	0.333333	136.818	-8.18332	46.8501	125.142	13.2642	25.8218	108.616	30.4154	0.46119	86.4267	34.8952	-14.0849	92.9233	-46.5855	-12.3445	69.7412	-48.7281	-34.9519	40.5493	-32.4356	-48.0799	64.8674	-61.1598	-4.42388	37.9415	-49.1383	-23.448	12.1629	-18.2439	-22.1659	44.2717	-55.7521	17.1999	22.8707	-31.7257	8.10612	21.7267	-0.121202	22.2165	35.289	-53.6939	41.368	19.2905	-23.3692	38.449	31.4613	3.41796	47.9413	92.9225	-68.0069	54.7994	113.975	-69.4948	81.4809	124.153	-51.0745	49.1723	
41	0.341667	132.129	-6.47274	49.6201	120.933	18.2414	29.0162	97.112	30.8089	4.37934	73.2646	36.7114	-10.1889	90.1543	-43.3953	-13.4326	64.3284	-43.3689	-34.7271	38.9481	-25.3685	-41.4853	62.0559	-57.6266	-7.98074	30.9712	-45.4698	-19.7133	8.9732	-13.2544	-12.0877	40.1122	-52.9884	15.2899	22.2432	-30.2915	10.5406	26.972	2.31987	32.7444	35.7614	-54.7113	42.9994	22.6272	-20.3664	39.6107	36.5562	-0.300341	54.4415	93.3645	-69.4187	56.1666	110.996	-67.0975	79.1906	126.032	-47.4231	47.5413	
42	0.35	126.47	-4.95727	51.0904	111.315	19.3179	33.3835	86.0671	33.7977	8.64392	60.8376	36.7229	-4.67646	80.9645	-42.423	-11.9993	57.9227	-38.9353	-28.8309	31.7025	-18.1469	-29.2416	57.6015	-56.8116	-4.7047	29.0853	-44.3877	-15.5828	8.14481	-11.0548	-5.59749	42.2212	-51.8902	16.1118	19.4993	-28.5488	15.9411	28.1291	-0.807075	33.8567	33.6344	-56.087	44.6606	18.6934	-25.395	45.0285	40.9988	-3.38006	59.4724	93.3275	-68.711	56.0782	110.795	-68.097	79.5137	122.352	-45.9755	45.7169	
43	0.358333	122.782	0.784333	53.418	100.659	20.3127	38.0474	74.7161	33.497	18.0778	50.1866	34.1938	7.84765	78.5275	-37.614	-6.02627	48.2961	-28.9812	-26.9197	26.0213	-9.41148	-19.1736	58.862	-51.8717	0.248248	26.2726	-36.2027	-13.0023	8.61625	-7.55535	3.18781	40.8344	-53.5792	19.3055	17.7295	-26.7549	21.4479	26.7861	-4.63671	45.122	31.0369	-56.8474	45.6666	20.4925	-25.2073	48.2421	43.1132	-9.09861	64.7396	93.5174	-66.8627	56.6453	112.663	-67.1156	79.2787	121.046	-44.8052	51.7761	
44	0.366667	111.826	0.990195	57.0036	89.9627	21.7562	44.6768	60.732	32.2757	27.2839	34.1927	29.9629	17.2503	71.0068	-32.6772	-8.75499	43.8203	-24.5176	-20.4822	17.8608	-6.24579	-3.06853	53.3812	-47.7637	-0.136741	19.1961	-33.8947	-3.21362	6.89542	-4.65795	18.7517	34.907	-51.9822	21.2702	14.7898	-27.4432	27.7971	27.5554	-8.35732	52.8104	33.8246	-56.0103	46.069	19.9337	-27.1635	56.274	45.5394	-14.4784	67.2445	91.5519	-67.811	53.0568	114.008	-64.1995	82.8046	120.832	-39.2017	51.5933	
45	0.375	103.675	5.90968	62.2121	74.6695	24.533	49.9463	43.308	32.3489	34.8354	16.0595	24.24	26.5325	67.014	-28.3691	-1.59097	35.492	-19.428	-13.9183	10.9844	-2.68664	7.74607	50.4338	-43.8094	1.98614	16.7593	-31.5125	1.14589	4.50408	-7.92916	33.1617	37.8545	-52.4603	24.0013	12.0077	-31.4914	34.2636	25.7215	-12.066	60.1609	30.0167	-61.1416	48.175	18.331	-34.8491	58.0528	41.9162	-20.3678	78.7401	93.8903	-61.7358	53.4297	116.13	-63.9306	81.8613	117.509	-31.1481	48.617	
46	0.383333	91.6834	13.2995	68.8193	59.1952	23.2265	62.036	22.5377	26.3738	48.3964	2.21097	15.3997	44.0899	58.6061	-18.0188	0.0806757	25.9292	-19.7608	-6.83456	-0.154775	-9.28847	18.3026	45.0158	-40.61	6.18159	8.67509	-31.2774	10.8125	0.928103	-15.061	45.6542	35.4044	-52.9704	25.1187	8.37095	-37.3059	40.1298	23.0312	-19.7397	67.6911	29.4096	-67.0979	48.7273	15.923	-41.2059	68.209	39.6063	-26.5706	78.8034	90.2405	-61.471	50.7709	114.881	-58.6995	75.2653	111.506	-25.9489	52.0006	
47	0.391667	84.172	11.5024	78.1184	45.5839	21.9214	72.0458	11.7739	20.8849	61.9541	-8.79219	3.71137	52.7557	55.0647	-10.9221	3.4476	21.9311	-20.0459	-6.02884	-5.53203	-14.1624	11.862	41.2871	-39.1729	6.96448	4.43722	-33.948	17.2461	-0.676359	-20.2939	53.7931	36.2554	-54.7206	24.9597	7.81479	-46.3001	45.0561	21.5533	-29.0338	70.6856	35.3234	-69.1712	45.3411	17.8498	-48.9241	63.2677	37.6768	-32.3485	80.5142	96.6276	-55.7357	49.3653	119.587	-48.8959	75.6404	109.99	-16.1095	56.7948	
48	0.4	74.3517	12.3812	84.4233	36.9935	14.8369	81.9269	1.96037	8.74496	69.5222	-17.4676	-2.90762	62.9819	49.7902	-9.70677	2.29669	24.0595	-12.6227	-8.93236	-5.41614	-23.8947	2.82653	42.0793	-36.8117	6.53779	7.14582	-38.0108	15.8275	1.09289	-31.4604	55.2716	37.9773	-53.5685	21.5457	12.1434	-53.739	39.9058	28.3444	-38.0267	74.2316	43.6407	-72.3883	41.4975	21.2942	-61.4355	65.3195	40.5019	-40.6545	80.1518	99.9426	-48.9821	49.1072	120.741	-44.9205	72.1323	106.051	-9.29898	58.7727	
49	0.408333	67.693	6.38838	87.4306	28.866	3.2471	82.7913	-2.22424	-1.43992	77.723	-23.81	-14.37	66.4764	49.3748	-6.45325	8.18924	20.609	-15.5491	-9.69736	-8.02875	-28.862	-6.61729	45.7684	-30.9401	7.44811	9.31177	-47.6931	17.5849	6.06099	-43.0935	54.0394	41.3062	-59.0167	21.0379	16.4822	-58.3716	39.2549	33.0964	-44.451	72.8229	50.7064	-71.6231	36.7787	29.0102	-68.1998	63.28	44.916	-47.6401	79.8191	101.297	-43.181	45.284	119.86	-36.7482	72.5813	103.293	-5.0117	61.4869	
